<svg xmlns="http://www.w3.org/2000/svg" viewBox="0 0 100 51"><path d="M92.88 9.66C88.65 5.43 83.03 3.1 77.06 3.1c-5.97 0-11.59 2.33-15.82 6.56l-.01.01-.01.01-26.83 27.29c-3.06 3.06-7.12 4.75-11.45 4.75s-8.39-1.69-11.45-4.75c-6.31-6.32-6.31-16.62 0-22.94 3.06-3.06 7.12-4.75 11.45-4.75s8.39 1.69 11.45 4.75c.02.02.04.03.06.05.02.02.03.04.05.06l5.7 5.16c.59.54 1.33.8 2.07.8.84 0 1.68-.34 2.29-1.02 1.14-1.27 1.05-3.22-.22-4.36l-5.7-5.16c-.01-.01-.02-.01-.03-.02-4.2-4.15-9.76-6.44-15.67-6.44-5.97 0-11.59 2.33-15.82 6.56-8.72 8.73-8.72 22.94 0 31.67 4.23 4.23 9.84 6.56 15.82 6.56 5.97 0 11.59-2.33 15.82-6.56l.01-.01.01-.01 26.84-27.29c3.06-3.06 7.12-4.75 11.45-4.75s8.39 1.69 11.45 4.75c6.31 6.32 6.31 16.62 0 22.94-3.06 3.06-7.12 4.75-11.45 4.75s-8.39-1.69-11.45-4.75c-.02-.02-.04-.03-.06-.05-.02-.02-.03-.04-.05-.06l-5.7-5.16a3.085 3.085 0 0 0-4.36.22c-1.14 1.27-1.05 3.22.22 4.36l5.7 5.16c.01.01.02.02.04.03 4.21 4.14 9.76 6.42 15.67 6.42 5.97 0 11.59-2.33 15.82-6.56 8.7-8.72 8.7-22.92-.02-31.66z"/></svg>