<svg xmlns="http://www.w3.org/2000/svg" viewBox="0 0 150 145"><path d="M145.33 132.63H5.15c-2.58 0-4.67 2.09-4.67 4.67s2.09 4.67 4.67 4.67h140.18c2.58 0 4.67-2.09 4.67-4.67s-2.09-4.67-4.67-4.67zM14.49 85.9c1.04 0 2.05-.12 3.03-.34l14.05 19.66a13.916 13.916 0 0 0-3.06 8.71c0 7.73 6.29 14.02 14.02 14.02s14.02-6.29 14.02-14.02c0-3.95-1.65-7.52-4.28-10.06l17.17-60.09c.37.03.75.05 1.13.05 1.09 0 2.14-.14 3.15-.37l18.51 24.48c-1.85 2.38-2.97 5.36-2.97 8.6 0 7.73 6.29 14.02 14.02 14.02s14.02-6.29 14.02-14.02c0-3.44-1.25-6.59-3.31-9.03l19.38-37.95c.85.16 1.73.26 2.63.26 7.73 0 14.02-6.29 14.02-14.02S143.73 1.78 136 1.78s-14.02 6.29-14.02 14.02c0 3.44 1.25 6.59 3.31 9.03L105.9 62.79c-.85-.16-1.73-.26-2.63-.26-1.08 0-2.14.14-3.15.37L81.61 38.42c1.85-2.38 2.97-5.35 2.97-8.6 0-7.73-6.29-14.02-14.02-14.02s-14.01 6.3-14.01 14.03c0 3.95 1.65 7.52 4.28 10.06L43.66 99.98c-.37-.03-.75-.05-1.13-.05-1.04 0-2.05.12-3.03.34L25.46 80.6c1.91-2.4 3.05-5.42 3.05-8.71 0-7.73-6.29-14.02-14.02-14.02S.47 64.15.47 71.88c0 7.73 6.29 14.02 14.02 14.02zm88.78-4.67c-2.58 0-4.67-2.09-4.67-4.67 0-2.57 2.1-4.67 4.67-4.67 2.58 0 4.67 2.1 4.67 4.67.01 2.57-2.09 4.67-4.67 4.67zm32.71-70.09a4.669 4.669 0 1 1 0 9.34 4.669 4.669 0 1 1 0-9.34zM70.56 25.15a4.669 4.669 0 1 1 0 9.34c-2.58 0-4.67-2.09-4.67-4.67 0-2.57 2.1-4.67 4.67-4.67zm-28.03 93.46c-2.58 0-4.67-2.1-4.67-4.67 0-1.15.43-2.19 1.13-3.01l1.88-1.35c.52-.2 1.08-.32 1.66-.32 2.58 0 4.67 2.09 4.67 4.67s-2.09 4.68-4.67 4.68zm-28.04-51.4c2.58 0 4.67 2.09 4.67 4.67 0 1.15-.43 2.19-1.12 3l-1.89 1.35c-.52.2-1.07.32-1.66.32-2.58 0-4.67-2.1-4.67-4.67s2.1-4.67 4.67-4.67z"/></svg>