<svg xmlns="http://www.w3.org/2000/svg" viewBox="0 0 100 85"><path d="M28.72 16.02h67.59c.54 0 1.06-.26 1.4-.68 2.08-2.54.31-5.4-2.12-5.4h-67.6c-.47 0-.93.16-1.24.51-2.31 2.58-.51 5.57 1.97 5.57zM95.6 40.33H28.01c-.54 0-1.06.26-1.4.68-2.08 2.54-.31 5.4 2.12 5.4h67.59c.54 0 1.06-.26 1.4-.68 2.07-2.54.31-5.4-2.12-5.4zM95.6 70.73H27.99c-.47 0-.93.16-1.24.51-2.3 2.58-.51 5.57 1.97 5.57h67.59c.54 0 1.06-.26 1.4-.68 2.08-2.54.32-5.4-2.11-5.4zM18.03 34.26H2.94c-.87 0-1.57.7-1.57 1.57v15.09c0 .87.7 1.57 1.57 1.57h15.09c.87 0 1.57-.7 1.57-1.57V35.83c0-.87-.7-1.57-1.57-1.57zm-4.51 12.15H7.44v-6.08h6.08v6.08zM18.03 3.86H2.94c-.87 0-1.57.7-1.57 1.57v15.09c0 .87.7 1.57 1.57 1.57h15.09c.87 0 1.57-.7 1.57-1.57V5.43c0-.87-.7-1.57-1.57-1.57zm-4.51 12.16H7.44V9.94h6.08v6.08zM18.03 64.65H2.94c-.87 0-1.57.7-1.57 1.57v15.09c0 .87.7 1.57 1.57 1.57h15.09c.87 0 1.57-.7 1.57-1.57V66.22c0-.86-.7-1.57-1.57-1.57zm-4.51 12.16H7.44v-6.08h6.08v6.08z"/></svg>