<svg id="logo-yamaha" xmlns="http://www.w3.org/2000/svg" viewBox="0 0 230 300"><style>.st0{fill:#fff;stroke:#fff;stroke-miterlimit:10}</style><g id="layer1" transform="translate(0 -235.576)"><g id="g27"><g id="レイヤー_1"><g id="g24"><g id="g8"><path id="path4" class="st0" d="M114.6 270.55c-48.08 0-87.05 38.97-87.05 87.06 0 48.08 38.98 87.06 87.05 87.06 48.08 0 87.06-38.98 87.06-87.06 0-48.08-38.98-87.06-87.06-87.06zm0 164.29c-42.65 0-77.24-34.58-77.24-77.23 0-42.66 34.58-77.24 77.24-77.24s77.24 34.58 77.24 77.24c0 42.65-34.58 77.23-77.24 77.23z"/><path id="path6" class="st0" d="M177.88 392.67l-12.64-14.76c-.16-.18-.34-.33-.55-.46-.65-.37-1.41-.38-2.03-.07-1.93.91-4.26.9-6.25-.25a6.697 6.697 0 0 1-3.25-4.59c-.89-4.74-3.76-9.07-8.26-11.66l-5.66-3.27 32.18-18.58-3.98-6.9-36.16 20.88-4.35-2.51v-5.02l36.16-20.88-3.98-6.9-32.18 18.58v-6.53c0-5.2-2.32-9.85-5.97-12.98a6.695 6.695 0 0 1-2.35-5.11c0-2.3 1.15-4.33 2.91-5.55.58-.39.95-1.05.95-1.8 0-.25-.04-.48-.11-.71l-6.46-18.32a1.34 1.34 0 0 0-1.28-.92c-.59 0-1.09.38-1.27.92l-6.46 18.32c-.08.22-.12.46-.12.71 0 .75.37 1.41.94 1.8a6.725 6.725 0 0 1 2.91 5.55c0 2.04-.91 3.87-2.35 5.11a17.05 17.05 0 0 0-5.97 12.98v6.53L70.11 317.7l-3.98 6.9 36.16 20.88v5.02l-4.35 2.5-36.16-20.88-3.98 6.9 32.18 18.58-5.66 3.27c-4.5 2.59-7.37 6.93-8.25 11.66a6.719 6.719 0 0 1-3.25 4.59 6.718 6.718 0 0 1-6.26.25 2.21 2.21 0 0 0-2.03.07c-.22.12-.4.28-.55.46l-12.64 14.75a1.37 1.37 0 0 0-.16 1.57c.29.51.88.75 1.43.65l19.1-3.58c.23-.05.46-.13.67-.25.65-.38 1.03-1.03 1.09-1.72a6.723 6.723 0 0 1 3.35-5.29 6.754 6.754 0 0 1 5.6-.52c4.54 1.6 9.73 1.28 14.23-1.32l5.66-3.26v37.16h7.97v-41.76l4.35-2.51 4.35 2.51v41.76h7.97v-37.16l5.66 3.26c4.5 2.6 9.69 2.92 14.23 1.32a6.727 6.727 0 0 1 8.94 5.81 2.163 2.163 0 0 0 1.75 1.97l19.1 3.58c.55.1 1.13-.14 1.43-.65.27-.51.18-1.13-.18-1.55zm-75.59-22.93l-10.62 6.13a4.348 4.348 0 0 1-4.35-7.53l10.62-6.13 4.35 2.51v5.02zm7.97-41.12c0-2.4 1.94-4.35 4.35-4.35s4.35 1.95 4.35 4.35v12.26l-4.35 2.51-4.35-2.51v-12.26zm9.34 31.88l-5 2.88-5-2.89v-5.77l5-2.89 5 2.89v5.78zm23.87 13.78a4.357 4.357 0 0 1-5.94 1.59l-10.62-6.13v-5.02l4.35-2.51 10.62 6.13a4.346 4.346 0 0 1 1.59 5.94z"/></g><g id="g22"><path id="polygon10" class="st0" d="M174.62 487.17h-10.18v-23.02h-9.3v60.05h9.3v-26.37h10.18v26.37h9.51v-60.05h-9.51z"/><path id="polygon12" class="st0" d="M8.76 464.15l10.32 36.82v23.23h10.34v-24.42l10.7-35.63h-8.7l-7.02 23.39-6.36-23.39z"/><path id="polygon14" class="st0" d="M98.48 464.15l-4.45 28.56-5.17-28.56H74.34v60.05h8.32v-45.27l7.11 39.35h7.78l6.3-39.98v45.9h9.77v-60.05z"/><path id="path16" class="st0" d="M212.48 464.15h-14.39l-9.71 60.05h8.61l2.06-13.97h10.71l2 13.97h9.49l-8.77-60.05zm-11.95 36.07l3.96-26.85 3.84 26.85h-7.8z"/><path id="path18" class="st0" d="M127.58 464.15l-9.71 60.05h8.61l2.06-13.97h10.71l2 13.97h9.48l-8.77-60.05h-14.38zm2.44 36.07l3.96-26.85 3.84 26.85h-7.8z"/><path id="path20" class="st0" d="M46.78 464.15l-9.71 60.05h8.61l2.06-13.97h10.71l2 13.97h9.48l-8.76-60.05H46.78zm2.43 36.07l3.96-26.85 3.84 26.85h-7.8z"/></g></g></g></g></g></svg>
