<svg xmlns="http://www.w3.org/2000/svg" xmlns:xlink="http://www.w3.org/1999/xlink"><symbol id="icon-key-features" viewBox="0 0 100 85"><path d="M28.72 16.02h67.59c.54 0 1.06-.26 1.4-.68 2.08-2.54.31-5.4-2.12-5.4h-67.6c-.47 0-.93.16-1.24.51-2.31 2.58-.51 5.57 1.97 5.57zM95.6 40.33H28.01c-.54 0-1.06.26-1.4.68-2.08 2.54-.31 5.4 2.12 5.4h67.59c.54 0 1.06-.26 1.4-.68 2.07-2.54.31-5.4-2.12-5.4zM95.6 70.73H27.99c-.47 0-.93.16-1.24.51-2.3 2.58-.51 5.57 1.97 5.57h67.59c.54 0 1.06-.26 1.4-.68 2.08-2.54.32-5.4-2.11-5.4zM18.03 34.26H2.94c-.87 0-1.57.7-1.57 1.57v15.09c0 .87.7 1.57 1.57 1.57h15.09c.87 0 1.57-.7 1.57-1.57V35.83c0-.87-.7-1.57-1.57-1.57zm-4.51 12.15H7.44v-6.08h6.08v6.08zM18.03 3.86H2.94c-.87 0-1.57.7-1.57 1.57v15.09c0 .87.7 1.57 1.57 1.57h15.09c.87 0 1.57-.7 1.57-1.57V5.43c0-.87-.7-1.57-1.57-1.57zm-4.51 12.16H7.44V9.94h6.08v6.08zM18.03 64.65H2.94c-.87 0-1.57.7-1.57 1.57v15.09c0 .87.7 1.57 1.57 1.57h15.09c.87 0 1.57-.7 1.57-1.57V66.22c0-.86-.7-1.57-1.57-1.57zm-4.51 12.16H7.44v-6.08h6.08v6.08z"/></symbol><symbol id="icon-life" viewBox="0 0 100 51"><path d="M92.88 9.66C88.65 5.43 83.03 3.1 77.06 3.1c-5.97 0-11.59 2.33-15.82 6.56l-.01.01-.01.01-26.83 27.29c-3.06 3.06-7.12 4.75-11.45 4.75s-8.39-1.69-11.45-4.75c-6.31-6.32-6.31-16.62 0-22.94 3.06-3.06 7.12-4.75 11.45-4.75s8.39 1.69 11.45 4.75c.02.02.04.03.06.05.02.02.03.04.05.06l5.7 5.16c.59.54 1.33.8 2.07.8.84 0 1.68-.34 2.29-1.02 1.14-1.27 1.05-3.22-.22-4.36l-5.7-5.16c-.01-.01-.02-.01-.03-.02-4.2-4.15-9.76-6.44-15.67-6.44-5.97 0-11.59 2.33-15.82 6.56-8.72 8.73-8.72 22.94 0 31.67 4.23 4.23 9.84 6.56 15.82 6.56 5.97 0 11.59-2.33 15.82-6.56l.01-.01.01-.01 26.84-27.29c3.06-3.06 7.12-4.75 11.45-4.75s8.39 1.69 11.45 4.75c6.31 6.32 6.31 16.62 0 22.94-3.06 3.06-7.12 4.75-11.45 4.75s-8.39-1.69-11.45-4.75c-.02-.02-.04-.03-.06-.05-.02-.02-.03-.04-.05-.06l-5.7-5.16a3.085 3.085 0 0 0-4.36.22c-1.14 1.27-1.05 3.22.22 4.36l5.7 5.16c.01.01.02.02.04.03 4.21 4.14 9.76 6.42 15.67 6.42 5.97 0 11.59-2.33 15.82-6.56 8.7-8.72 8.7-22.92-.02-31.66z"/></symbol><symbol id="icon-power" viewBox="0 0 305 567.26"><path d="M63.86 567.26c-2.52 0-5.06-.54-7.45-1.64a17.747 17.747 0 0 1-9.95-19.43L76.49 390H37.28c-5.94 0-11.49-2.98-14.77-7.93a17.71 17.71 0 0 1-1.57-16.69l49.44-117.2H19.55c-5.57 0-10.84-2.63-14.18-7.09a17.737 17.737 0 0 1-2.84-15.6L64.58 12.77C66.78 5.2 73.72 0 81.59 0h203.86c6.28 0 12.09 3.32 15.28 8.73 3.19 5.42 3.26 12.11.22 17.61l-74.01 133.2h49.65c6.41 0 12.32 3.46 15.46 9.05a17.766 17.766 0 0 1-.32 17.91l-70 114.86H250c6.83 0 13.05 3.92 16 10.08s2.09 13.47-2.21 18.78L77.65 560.67a17.717 17.717 0 0 1-13.79 6.59zM64 354.54h33.96c5.29 0 10.3 2.36 13.67 6.44a17.75 17.75 0 0 1 3.74 14.64L94.68 483.17 212.9 336.81h-22.73c-6.41 0-12.32-3.46-15.46-9.05a17.766 17.766 0 0 1 .32-17.91l70-114.86h-48.21c-6.28 0-12.09-3.32-15.28-8.73a17.762 17.762 0 0 1-.22-17.61l74.01-133.2H94.89L43.18 212.72H97.1c5.94 0 11.49 2.98 14.77 7.93a17.71 17.71 0 0 1 1.57 16.69L64 354.54z"/></symbol><symbol id="icon-search" viewBox="0 0 10 10"><circle cx="4.63" cy="4.68" r="3.74" fill="none" stroke="#202227" stroke-miterlimit="10"/><path fill="none" stroke="#202227" stroke-linecap="round" stroke-linejoin="round" stroke-miterlimit="10" d="M7.32 7.27l1.79 1.79"/></symbol><symbol id="icon-specs" viewBox="0 0 150 145"><path d="M145.33 132.63H5.15c-2.58 0-4.67 2.09-4.67 4.67s2.09 4.67 4.67 4.67h140.18c2.58 0 4.67-2.09 4.67-4.67s-2.09-4.67-4.67-4.67zM14.49 85.9c1.04 0 2.05-.12 3.03-.34l14.05 19.66a13.916 13.916 0 0 0-3.06 8.71c0 7.73 6.29 14.02 14.02 14.02s14.02-6.29 14.02-14.02c0-3.95-1.65-7.52-4.28-10.06l17.17-60.09c.37.03.75.05 1.13.05 1.09 0 2.14-.14 3.15-.37l18.51 24.48c-1.85 2.38-2.97 5.36-2.97 8.6 0 7.73 6.29 14.02 14.02 14.02s14.02-6.29 14.02-14.02c0-3.44-1.25-6.59-3.31-9.03l19.38-37.95c.85.16 1.73.26 2.63.26 7.73 0 14.02-6.29 14.02-14.02S143.73 1.78 136 1.78s-14.02 6.29-14.02 14.02c0 3.44 1.25 6.59 3.31 9.03L105.9 62.79c-.85-.16-1.73-.26-2.63-.26-1.08 0-2.14.14-3.15.37L81.61 38.42c1.85-2.38 2.97-5.35 2.97-8.6 0-7.73-6.29-14.02-14.02-14.02s-14.01 6.3-14.01 14.03c0 3.95 1.65 7.52 4.28 10.06L43.66 99.98c-.37-.03-.75-.05-1.13-.05-1.04 0-2.05.12-3.03.34L25.46 80.6c1.91-2.4 3.05-5.42 3.05-8.71 0-7.73-6.29-14.02-14.02-14.02S.47 64.15.47 71.88c0 7.73 6.29 14.02 14.02 14.02zm88.78-4.67c-2.58 0-4.67-2.09-4.67-4.67 0-2.57 2.1-4.67 4.67-4.67 2.58 0 4.67 2.1 4.67 4.67.01 2.57-2.09 4.67-4.67 4.67zm32.71-70.09a4.669 4.669 0 1 1 0 9.34 4.669 4.669 0 1 1 0-9.34zM70.56 25.15a4.669 4.669 0 1 1 0 9.34c-2.58 0-4.67-2.09-4.67-4.67 0-2.57 2.1-4.67 4.67-4.67zm-28.03 93.46c-2.58 0-4.67-2.1-4.67-4.67 0-1.15.43-2.19 1.13-3.01l1.88-1.35c.52-.2 1.08-.32 1.66-.32 2.58 0 4.67 2.09 4.67 4.67s-2.09 4.68-4.67 4.68zm-28.04-51.4c2.58 0 4.67 2.09 4.67 4.67 0 1.15-.43 2.19-1.12 3l-1.89 1.35c-.52.2-1.07.32-1.66.32-2.58 0-4.67-2.1-4.67-4.67s2.1-4.67 4.67-4.67z"/></symbol><symbol id="icon-speed" viewBox="0 0 92 83"><path d="M49.08 51.72V28.54c0-1.56-1.28-2.83-2.84-2.83-1.57 0-2.85 1.27-2.84 2.83v23.17a9.953 9.953 0 0 0-4.2 16.58c3.89 3.89 10.19 3.88 14.08 0a9.953 9.953 0 0 0 0-14.08 9.98 9.98 0 0 0-4.2-2.49zm.18 12.56a4.255 4.255 0 0 1-6.03 0 4.267 4.267 0 0 1 0-6.04c1.66-1.67 4.37-1.66 6.03 0a4.285 4.285 0 0 1 0 6.04zM46.24 20.02c1.57 0 2.84-1.27 2.84-2.84v-5.69c0-1.57-1.27-2.84-2.84-2.84-1.57 0-2.84 1.27-2.84 2.84v5.69a2.832 2.832 0 0 0 2.84 2.84zM17.8 42.77h-5.69c-1.57 0-2.84 1.27-2.84 2.84 0 1.57 1.27 2.84 2.84 2.84h5.69c1.57 0 2.84-1.27 2.84-2.84 0-1.57-1.27-2.84-2.84-2.84zM80.36 42.77h-5.69c-1.57 0-2.84 1.27-2.84 2.84 0 1.57 1.27 2.84 2.84 2.84h5.69c1.57 0 2.84-1.27 2.84-2.84a2.832 2.832 0 0 0-2.84-2.84zM72.38 19.47a2.843 2.843 0 0 0-4.02 0l-4.02 4.02a2.843 2.843 0 0 0 0 4.02c.56.56 1.29.83 2.01.83.73 0 1.46-.28 2.01-.83l4.02-4.02a2.843 2.843 0 0 0 0-4.02zM24.12 19.47a2.843 2.843 0 0 0-4.02 4.02l4.02 4.02c.56.56 1.28.83 2.01.83a2.84 2.84 0 0 0 2.01-4.85l-4.02-4.02z"/><path d="M46.24.11C21.15.11.74 20.52.74 45.61c0 14.44 6.63 27.71 18.2 36.4.49.37 1.09.57 1.71.57h51.19c.62 0 1.22-.2 1.71-.57 11.57-8.69 18.2-21.96 18.2-36.4C91.74 20.52 71.33.11 46.24.11zm24.62 76.78H21.61c-9.66-7.6-15.19-18.95-15.19-31.28C6.42 23.66 24.28 5.8 46.24 5.8s39.81 17.86 39.81 39.81c0 12.33-5.52 23.68-15.19 31.28z"/></symbol><symbol id="logo-yamaha" viewBox="0 0 230 300"><style>.st0{fill:#fff;stroke:#fff;stroke-miterlimit:10}</style><g id="layer1" transform="translate(0 -235.576)"><g id="g27"><g id="&#x30EC;&#x30A4;&#x30E4;&#x30FC;_1"><g id="g24"><g id="g8"><path id="path4" class="st0" d="M114.6 270.55c-48.08 0-87.05 38.97-87.05 87.06 0 48.08 38.98 87.06 87.05 87.06 48.08 0 87.06-38.98 87.06-87.06 0-48.08-38.98-87.06-87.06-87.06zm0 164.29c-42.65 0-77.24-34.58-77.24-77.23 0-42.66 34.58-77.24 77.24-77.24s77.24 34.58 77.24 77.24c0 42.65-34.58 77.23-77.24 77.23z"/><path id="path6" class="st0" d="M177.88 392.67l-12.64-14.76c-.16-.18-.34-.33-.55-.46-.65-.37-1.41-.38-2.03-.07-1.93.91-4.26.9-6.25-.25a6.697 6.697 0 0 1-3.25-4.59c-.89-4.74-3.76-9.07-8.26-11.66l-5.66-3.27 32.18-18.58-3.98-6.9-36.16 20.88-4.35-2.51v-5.02l36.16-20.88-3.98-6.9-32.18 18.58v-6.53c0-5.2-2.32-9.85-5.97-12.98a6.695 6.695 0 0 1-2.35-5.11c0-2.3 1.15-4.33 2.91-5.55.58-.39.95-1.05.95-1.8 0-.25-.04-.48-.11-.71l-6.46-18.32a1.34 1.34 0 0 0-1.28-.92c-.59 0-1.09.38-1.27.92l-6.46 18.32c-.08.22-.12.46-.12.71 0 .75.37 1.41.94 1.8a6.725 6.725 0 0 1 2.91 5.55c0 2.04-.91 3.87-2.35 5.11a17.05 17.05 0 0 0-5.97 12.98v6.53L70.11 317.7l-3.98 6.9 36.16 20.88v5.02l-4.35 2.5-36.16-20.88-3.98 6.9 32.18 18.58-5.66 3.27c-4.5 2.59-7.37 6.93-8.25 11.66a6.719 6.719 0 0 1-3.25 4.59 6.718 6.718 0 0 1-6.26.25 2.21 2.21 0 0 0-2.03.07c-.22.12-.4.28-.55.46l-12.64 14.75a1.37 1.37 0 0 0-.16 1.57c.29.51.88.75 1.43.65l19.1-3.58c.23-.05.46-.13.67-.25.65-.38 1.03-1.03 1.09-1.72a6.723 6.723 0 0 1 3.35-5.29 6.754 6.754 0 0 1 5.6-.52c4.54 1.6 9.73 1.28 14.23-1.32l5.66-3.26v37.16h7.97v-41.76l4.35-2.51 4.35 2.51v41.76h7.97v-37.16l5.66 3.26c4.5 2.6 9.69 2.92 14.23 1.32a6.727 6.727 0 0 1 8.94 5.81 2.163 2.163 0 0 0 1.75 1.97l19.1 3.58c.55.1 1.13-.14 1.43-.65.27-.51.18-1.13-.18-1.55zm-75.59-22.93l-10.62 6.13a4.348 4.348 0 0 1-4.35-7.53l10.62-6.13 4.35 2.51v5.02zm7.97-41.12c0-2.4 1.94-4.35 4.35-4.35s4.35 1.95 4.35 4.35v12.26l-4.35 2.51-4.35-2.51v-12.26zm9.34 31.88l-5 2.88-5-2.89v-5.77l5-2.89 5 2.89v5.78zm23.87 13.78a4.357 4.357 0 0 1-5.94 1.59l-10.62-6.13v-5.02l4.35-2.51 10.62 6.13a4.346 4.346 0 0 1 1.59 5.94z"/></g><g id="g22"><path id="polygon10" class="st0" d="M174.62 487.17h-10.18v-23.02h-9.3v60.05h9.3v-26.37h10.18v26.37h9.51v-60.05h-9.51z"/><path id="polygon12" class="st0" d="M8.76 464.15l10.32 36.82v23.23h10.34v-24.42l10.7-35.63h-8.7l-7.02 23.39-6.36-23.39z"/><path id="polygon14" class="st0" d="M98.48 464.15l-4.45 28.56-5.17-28.56H74.34v60.05h8.32v-45.27l7.11 39.35h7.78l6.3-39.98v45.9h9.77v-60.05z"/><path id="path16" class="st0" d="M212.48 464.15h-14.39l-9.71 60.05h8.61l2.06-13.97h10.71l2 13.97h9.49l-8.77-60.05zm-11.95 36.07l3.96-26.85 3.84 26.85h-7.8z"/><path id="path18" class="st0" d="M127.58 464.15l-9.71 60.05h8.61l2.06-13.97h10.71l2 13.97h9.48l-8.77-60.05h-14.38zm2.44 36.07l3.96-26.85 3.84 26.85h-7.8z"/><path id="path20" class="st0" d="M46.78 464.15l-9.71 60.05h8.61l2.06-13.97h10.71l2 13.97h9.48l-8.76-60.05H46.78zm2.43 36.07l3.96-26.85 3.84 26.85h-7.8z"/></g></g></g></g></g></symbol></svg>