<svg xmlns="http://www.w3.org/2000/svg" viewBox="0 0 92 83"><path d="M49.08 51.72V28.54c0-1.56-1.28-2.83-2.84-2.83-1.57 0-2.85 1.27-2.84 2.83v23.17a9.953 9.953 0 0 0-4.2 16.58c3.89 3.89 10.19 3.88 14.08 0a9.953 9.953 0 0 0 0-14.08 9.98 9.98 0 0 0-4.2-2.49zm.18 12.56a4.255 4.255 0 0 1-6.03 0 4.267 4.267 0 0 1 0-6.04c1.66-1.67 4.37-1.66 6.03 0a4.285 4.285 0 0 1 0 6.04zM46.24 20.02c1.57 0 2.84-1.27 2.84-2.84v-5.69c0-1.57-1.27-2.84-2.84-2.84-1.57 0-2.84 1.27-2.84 2.84v5.69a2.832 2.832 0 0 0 2.84 2.84zM17.8 42.77h-5.69c-1.57 0-2.84 1.27-2.84 2.84 0 1.57 1.27 2.84 2.84 2.84h5.69c1.57 0 2.84-1.27 2.84-2.84 0-1.57-1.27-2.84-2.84-2.84zM80.36 42.77h-5.69c-1.57 0-2.84 1.27-2.84 2.84 0 1.57 1.27 2.84 2.84 2.84h5.69c1.57 0 2.84-1.27 2.84-2.84a2.832 2.832 0 0 0-2.84-2.84zM72.38 19.47a2.843 2.843 0 0 0-4.02 0l-4.02 4.02a2.843 2.843 0 0 0 0 4.02c.56.56 1.29.83 2.01.83.73 0 1.46-.28 2.01-.83l4.02-4.02a2.843 2.843 0 0 0 0-4.02zM24.12 19.47a2.843 2.843 0 0 0-4.02 4.02l4.02 4.02c.56.56 1.28.83 2.01.83a2.84 2.84 0 0 0 2.01-4.85l-4.02-4.02z"/><path d="M46.24.11C21.15.11.74 20.52.74 45.61c0 14.44 6.63 27.71 18.2 36.4.49.37 1.09.57 1.71.57h51.19c.62 0 1.22-.2 1.71-.57 11.57-8.69 18.2-21.96 18.2-36.4C91.74 20.52 71.33.11 46.24.11zm24.62 76.78H21.61c-9.66-7.6-15.19-18.95-15.19-31.28C6.42 23.66 24.28 5.8 46.24 5.8s39.81 17.86 39.81 39.81c0 12.33-5.52 23.68-15.19 31.28z"/></svg>