<svg xmlns="http://www.w3.org/2000/svg" viewBox="0 0 305 567.26"><path d="M63.86 567.26c-2.52 0-5.06-.54-7.45-1.64a17.747 17.747 0 0 1-9.95-19.43L76.49 390H37.28c-5.94 0-11.49-2.98-14.77-7.93a17.71 17.71 0 0 1-1.57-16.69l49.44-117.2H19.55c-5.57 0-10.84-2.63-14.18-7.09a17.737 17.737 0 0 1-2.84-15.6L64.58 12.77C66.78 5.2 73.72 0 81.59 0h203.86c6.28 0 12.09 3.32 15.28 8.73 3.19 5.42 3.26 12.11.22 17.61l-74.01 133.2h49.65c6.41 0 12.32 3.46 15.46 9.05a17.766 17.766 0 0 1-.32 17.91l-70 114.86H250c6.83 0 13.05 3.92 16 10.08s2.09 13.47-2.21 18.78L77.65 560.67a17.717 17.717 0 0 1-13.79 6.59zM64 354.54h33.96c5.29 0 10.3 2.36 13.67 6.44a17.75 17.75 0 0 1 3.74 14.64L94.68 483.17 212.9 336.81h-22.73c-6.41 0-12.32-3.46-15.46-9.05a17.766 17.766 0 0 1 .32-17.91l70-114.86h-48.21c-6.28 0-12.09-3.32-15.28-8.73a17.762 17.762 0 0 1-.22-17.61l74.01-133.2H94.89L43.18 212.72H97.1c5.94 0 11.49 2.98 14.77 7.93a17.71 17.71 0 0 1 1.57 16.69L64 354.54z"/></svg>